<svg width="1200" height="800" viewBox="0 0 1200 800" fill="none" xmlns="http://www.w3.org/2000/svg">
  <defs>
    <linearGradient id="bg" x1="0" y1="0" x2="1200" y2="800" gradientUnits="userSpaceOnUse">
      <stop stop-color="#E8F1FF" />
      <stop offset="1" stop-color="#F2FBFF" />
    </linearGradient>
    <linearGradient id="tower" x1="0" y1="0" x2="0" y2="1">
      <stop stop-color="#3B82F6" />
      <stop offset="1" stop-color="#1D4ED8" />
    </linearGradient>
  </defs>
  <rect width="1200" height="800" rx="32" fill="url(#bg)"/>
  <g opacity="0.18" stroke="#2563EB" stroke-width="2">
    <path d="M0 90H1200"/>
    <path d="M0 190H1200"/>
    <path d="M0 290H1200"/>
    <path d="M0 390H1200"/>
    <path d="M0 490H1200"/>
    <path d="M0 590H1200"/>
    <path d="M0 690H1200"/>
    <path d="M100 0V800"/>
    <path d="M250 0V800"/>
    <path d="M400 0V800"/>
    <path d="M550 0V800"/>
    <path d="M700 0V800"/>
    <path d="M850 0V800"/>
    <path d="M1000 0V800"/>
    <path d="M1150 0V800"/>
  </g>
  <g>
    <rect x="140" y="340" width="140" height="330" rx="18" fill="url(#tower)"/>
    <rect x="320" y="260" width="180" height="410" rx="18" fill="url(#tower)"/>
    <rect x="540" y="310" width="150" height="360" rx="18" fill="url(#tower)"/>
    <rect x="730" y="220" width="210" height="450" rx="18" fill="url(#tower)"/>
    <rect x="980" y="360" width="100" height="310" rx="18" fill="url(#tower)"/>
  </g>
  <g fill="#DBEAFE">
    <circle cx="215" cy="430" r="9"/>
    <circle cx="215" cy="470" r="9"/>
    <circle cx="215" cy="510" r="9"/>
    <circle cx="390" cy="350" r="10"/>
    <circle cx="390" cy="398" r="10"/>
    <circle cx="390" cy="446" r="10"/>
    <circle cx="610" cy="390" r="9"/>
    <circle cx="610" cy="430" r="9"/>
    <circle cx="610" cy="470" r="9"/>
    <circle cx="840" cy="300" r="11"/>
    <circle cx="840" cy="350" r="11"/>
    <circle cx="840" cy="400" r="11"/>
  </g>
  <g>
    <rect x="170" y="120" width="310" height="90" rx="14" fill="white"/>
    <text x="195" y="172" fill="#1E3A8A" font-family="Arial, sans-serif" font-size="30" font-weight="700">Civic Pulse Map</text>
    <rect x="760" y="90" width="290" height="125" rx="16" fill="white"/>
    <text x="790" y="145" fill="#1E3A8A" font-family="Arial, sans-serif" font-size="26" font-weight="700">Verified Signals</text>
    <text x="790" y="182" fill="#334155" font-family="Arial, sans-serif" font-size="18">Real issues, faster response</text>
  </g>
</svg>
