<svg width="1200" height="800" viewBox="0 0 1200 800" fill="none" xmlns="http://www.w3.org/2000/svg">
  <defs>
    <linearGradient id="mrbg" x1="0" y1="0" x2="1200" y2="800" gradientUnits="userSpaceOnUse">
      <stop stop-color="#EFF6FF"/>
      <stop offset="1" stop-color="#FEF3C7"/>
    </linearGradient>
    <linearGradient id="phone" x1="420" y1="90" x2="780" y2="710" gradientUnits="userSpaceOnUse">
      <stop stop-color="#0F172A"/>
      <stop offset="1" stop-color="#1E293B"/>
    </linearGradient>
  </defs>
  <rect width="1200" height="800" rx="32" fill="url(#mrbg)"/>
  <rect x="390" y="70" width="420" height="660" rx="44" fill="url(#phone)"/>
  <rect x="430" y="130" width="340" height="530" rx="24" fill="#F8FAFC"/>
  <rect x="460" y="170" width="280" height="140" rx="16" fill="#DBEAFE"/>
  <rect x="460" y="330" width="280" height="22" rx="8" fill="#60A5FA"/>
  <rect x="460" y="365" width="220" height="16" rx="8" fill="#93C5FD"/>
  <rect x="460" y="392" width="260" height="16" rx="8" fill="#93C5FD"/>
  <rect x="460" y="430" width="120" height="38" rx="10" fill="#2563EB"/>
  <text x="488" y="455" fill="white" font-family="Arial, sans-serif" font-size="17" font-weight="700">Submit</text>
  <circle cx="600" cy="690" r="18" fill="#334155"/>
  <g>
    <circle cx="220" cy="230" r="90" fill="#3B82F6" fill-opacity="0.15"/>
    <circle cx="970" cy="550" r="120" fill="#F97316" fill-opacity="0.14"/>
    <circle cx="910" cy="210" r="70" fill="#0EA5E9" fill-opacity="0.16"/>
  </g>
  <g>
    <rect x="110" y="100" width="220" height="88" rx="14" fill="white"/>
    <text x="140" y="152" fill="#1E3A8A" font-family="Arial, sans-serif" font-size="30" font-weight="700">Quick Report</text>
    <rect x="860" y="96" width="250" height="100" rx="14" fill="white"/>
    <text x="890" y="146" fill="#0F172A" font-family="Arial, sans-serif" font-size="28" font-weight="700">On-ground Photo</text>
    <text x="890" y="176" fill="#334155" font-family="Arial, sans-serif" font-size="18">Uploaded in 22 sec</text>
  </g>
</svg>
