<svg width="1200" height="800" viewBox="0 0 1200 800" fill="none" xmlns="http://www.w3.org/2000/svg">
  <defs>
    <linearGradient id="bg3" x1="0" y1="0" x2="1200" y2="800" gradientUnits="userSpaceOnUse">
      <stop stop-color="#F8FAFC"/>
      <stop offset="1" stop-color="#E2E8F0"/>
    </linearGradient>
    <linearGradient id="bar" x1="0" y1="0" x2="1" y2="0">
      <stop stop-color="#60A5FA"/>
      <stop offset="1" stop-color="#2563EB"/>
    </linearGradient>
  </defs>
  <rect width="1200" height="800" rx="32" fill="url(#bg3)"/>
  <rect x="80" y="90" width="1040" height="620" rx="24" fill="white"/>
  <rect x="120" y="140" width="270" height="220" rx="16" fill="#EFF6FF"/>
  <rect x="430" y="140" width="300" height="220" rx="16" fill="#EFF6FF"/>
  <rect x="770" y="140" width="310" height="220" rx="16" fill="#EFF6FF"/>
  <rect x="120" y="400" width="960" height="260" rx="16" fill="#F8FAFC"/>
  <text x="150" y="190" fill="#1E3A8A" font-family="Arial, sans-serif" font-size="26" font-weight="700">Issue Funnel</text>
  <text x="460" y="190" fill="#1E3A8A" font-family="Arial, sans-serif" font-size="26" font-weight="700">Response Time</text>
  <text x="800" y="190" fill="#1E3A8A" font-family="Arial, sans-serif" font-size="26" font-weight="700">Credibility Mix</text>
  <rect x="150" y="230" width="210" height="18" rx="9" fill="url(#bar)"/>
  <rect x="150" y="262" width="176" height="18" rx="9" fill="url(#bar)"/>
  <rect x="150" y="294" width="124" height="18" rx="9" fill="url(#bar)"/>
  <rect x="460" y="240" width="36" height="84" rx="8" fill="#2563EB"/>
  <rect x="516" y="210" width="36" height="114" rx="8" fill="#3B82F6"/>
  <rect x="572" y="180" width="36" height="144" rx="8" fill="#60A5FA"/>
  <rect x="628" y="220" width="36" height="104" rx="8" fill="#93C5FD"/>
  <circle cx="880" cy="266" r="66" fill="#2563EB"/>
  <path d="M880 200A66 66 0 0 1 944 258L880 266Z" fill="#60A5FA"/>
  <path d="M880 266L944 258A66 66 0 0 1 916 321Z" fill="#93C5FD"/>
  <text x="150" y="456" fill="#0F172A" font-family="Arial, sans-serif" font-size="30" font-weight="700">Operational Snapshot</text>
  <text x="150" y="510" fill="#334155" font-family="Arial, sans-serif" font-size="22">- 1,284 issues processed this month</text>
  <text x="150" y="548" fill="#334155" font-family="Arial, sans-serif" font-size="22">- 74% high-confidence submissions</text>
  <text x="150" y="586" fill="#334155" font-family="Arial, sans-serif" font-size="22">- Avg. first response in 3h 12m</text>
  <text x="150" y="624" fill="#334155" font-family="Arial, sans-serif" font-size="22">- 18 city partners consuming alerts</text>
</svg>
