<svg width="1200" height="800" viewBox="0 0 1200 800" fill="none" xmlns="http://www.w3.org/2000/svg">
  <defs>
    <linearGradient id="spbg" x1="0" y1="0" x2="1200" y2="800" gradientUnits="userSpaceOnUse">
      <stop stop-color="#F0F9FF"/>
      <stop offset="1" stop-color="#ECFEFF"/>
    </linearGradient>
    <linearGradient id="road" x1="600" y1="160" x2="600" y2="760" gradientUnits="userSpaceOnUse">
      <stop stop-color="#1E3A8A"/>
      <stop offset="1" stop-color="#1D4ED8"/>
    </linearGradient>
  </defs>
  <rect width="1200" height="800" rx="32" fill="url(#spbg)"/>
  <path d="M470 120H730L680 760H520L470 120Z" fill="url(#road)"/>
  <path d="M592 160H608V760H592V160Z" fill="#BFDBFE"/>
  <path d="M592 160H608V220H592V160Z" fill="#F8FAFC"/>
  <path d="M592 280H608V340H592V280Z" fill="#F8FAFC"/>
  <path d="M592 400H608V460H592V400Z" fill="#F8FAFC"/>
  <path d="M592 520H608V580H592V520Z" fill="#F8FAFC"/>
  <g>
    <rect x="150" y="250" width="220" height="150" rx="16" fill="#3B82F6"/>
    <rect x="830" y="220" width="230" height="180" rx="16" fill="#0EA5E9"/>
    <rect x="120" y="460" width="260" height="200" rx="16" fill="#60A5FA"/>
    <rect x="830" y="460" width="250" height="190" rx="16" fill="#38BDF8"/>
  </g>
  <g>
    <circle cx="540" cy="440" r="18" fill="#F97316"/>
    <circle cx="540" cy="440" r="42" fill="#F97316" fill-opacity="0.35"/>
    <circle cx="540" cy="440" r="70" fill="#F97316" fill-opacity="0.2"/>
  </g>
  <g>
    <rect x="90" y="80" width="430" height="96" rx="16" fill="white"/>
    <text x="120" y="140" fill="#0F172A" font-family="Arial, sans-serif" font-size="38" font-weight="700">Street Pulse Monitoring</text>
  </g>
  <g>
    <rect x="735" y="90" width="380" height="110" rx="16" fill="white"/>
    <text x="765" y="145" fill="#1E3A8A" font-family="Arial, sans-serif" font-size="30" font-weight="700">Hotspot Alert: Ward 17</text>
    <text x="765" y="176" fill="#334155" font-family="Arial, sans-serif" font-size="19">Pothole + waterlogging cluster detected</text>
  </g>
</svg>
