<svg width="1200" height="800" viewBox="0 0 1200 800" fill="none" xmlns="http://www.w3.org/2000/svg">
  <defs>
    <pattern id="grid" width="80" height="80" patternUnits="userSpaceOnUse">
      <path d="M80 0H0V80" stroke="#3B82F6" stroke-opacity="0.22" stroke-width="1"/>
    </pattern>
  </defs>

  <rect width="1200" height="800" fill="url(#grid)"/>

  <g stroke="#2563EB" stroke-opacity="0.35" stroke-width="2">
    <path d="M40 140C170 110 220 250 360 220C470 196 540 80 670 120C790 157 840 260 960 246C1070 233 1140 140 1180 90"/>
    <path d="M20 350C110 280 215 300 290 365C360 425 430 470 530 455C650 438 710 300 840 292C980 284 1050 350 1180 420"/>
    <path d="M30 620C130 640 245 570 340 585C430 600 530 680 620 662C760 632 825 500 955 520C1050 535 1110 610 1180 670"/>
  </g>

  <g fill="#1D4ED8" fill-opacity="0.45">
    <circle cx="220" cy="250" r="6"/>
    <circle cx="360" cy="220" r="6"/>
    <circle cx="670" cy="120" r="6"/>
    <circle cx="960" cy="246" r="6"/>
    <circle cx="290" cy="365" r="6"/>
    <circle cx="530" cy="455" r="6"/>
    <circle cx="840" cy="292" r="6"/>
    <circle cx="955" cy="520" r="6"/>
    <circle cx="620" cy="662" r="6"/>
  </g>
</svg>
